<svg width="32" height="32" viewBox="0 0 32 32" fill="none" xmlns="http://www.w3.org/2000/svg">
  <defs>
    <linearGradient id="storeGradient" x1="0%" y1="0%" x2="100%" y2="100%">
      <stop offset="0%" stop-color="#3B82F6" />
      <stop offset="100%" stop-color="#1D4ED8" />
    </linearGradient>
  </defs>
  
  <rect width="32" height="32" rx="8" fill="url(#storeGradient)"/>
  
  <!-- Shopping bag icon -->
  <path d="M9 12L9 10C9 8.34315 10.3431 7 12 7L20 7C21.6569 7 23 8.34315 23 10L23 12" stroke="white" stroke-width="1.5" stroke-linecap="round"/>
  <path d="M9 12L23 12L23 22C23 23.6569 21.6569 25 20 25L12 25C10.3431 25 9 23.6569 9 22L9 12Z" stroke="white" stroke-width="1.5"/>
  
  <!-- Shopping cart handle -->
  <path d="M11 11L11 9.5C11 8.67157 11.6716 8 12.5 8L19.5 8C20.3284 8 21 8.67157 21 9.5L21 11" stroke="white" stroke-width="1.5" stroke-linecap="round"/>
  
  <!-- Sparkle/details -->
  <circle cx="15" cy="16" r="1" fill="white" opacity="0.8"/>
  <circle cx="19" cy="18" r="0.75" fill="white" opacity="0.6"/>
</svg>